<?xml version="1.0" encoding="UTF-8"?>
<svg id="Ebene_2" data-name="Ebene 2" xmlns="http://www.w3.org/2000/svg" xmlns:xlink="http://www.w3.org/1999/xlink" viewBox="0 0 336.07 161.59">
  <defs>
    <style>
      .cls-1, .cls-2 {
        fill: none;
      }

      .cls-2 {
        stroke: #c20016;
        stroke-miterlimit: 3.86;
        stroke-width: 2.4px;
      }

      .cls-3 {
        fill: #9b9b9b;
      }

      .cls-4 {
        clip-path: url(#clippath);
      }
    </style>
    <clipPath id="clippath">
      <path class="cls-1" d="M218.84,97.83h44.89v22.74h-44.89v-22.74ZM130.38,44.38h44.27v76.18h-44.27V44.38ZM131.48,161.59h204.59V0h-204.59v161.59Z"/>
    </clipPath>
  </defs>
  <g id="Ebene_1-2" data-name="Ebene 1">
    <g class="cls-4">
      <path class="cls-2" d="M327.02,78.17c-20.86-60.99-237.06,198.4-184.8,13.69,69.96-247.22,226.53,108.34,184.8-13.69Z"/>
    </g>
    <path class="cls-3" d="M298.63,118.18h4.4l-.15-12.27h.05l6.28,12.27h5.94v-17.96h-4.37l.08,12.2h-.05l-6.07-12.2h-6.1v17.96h0ZM283.06,109.2c0-3.11,1.16-5.74,4.07-5.74s4.07,2.62,4.07,5.74-1.16,5.74-4.07,5.74-4.07-2.78-4.07-5.74M278.12,109.2c0,5.71,3.14,9.29,9.01,9.29s9.01-3.58,9.01-9.29-3.09-9.29-9.01-9.29-9.01,3.53-9.01,9.29M270.68,118.18h4.79v-17.96h-4.79v17.96ZM259.49,118.18h4.79v-14.41h4.43v-3.55h-13.64v3.55h4.43v14.41h0ZM236.46,118.18h4.4l-.15-12.27h.05l6.28,12.27h5.94v-17.96h-4.38l.08,12.2h-.05l-6.07-12.2h-6.1v17.96h0ZM220.79,118.18h12.94v-3.4h-8.16v-4.07h7.44v-3.4h-7.44v-3.71h7.88v-3.4h-12.66v17.98ZM207.23,118.18h5.92l6.12-17.96h-4.91l-4.01,14.1h-.05l-3.99-14.1h-5.1l6.02,17.96h0ZM187.72,99.27h3.71v-3.71h-3.71v3.71ZM193.59,99.27h3.71v-3.71h-3.71v3.71ZM194.57,110.95h-4.5l2.32-7.03h.05l2.14,7.03h-.01ZM182.68,118.18h4.86l1.42-3.83h6.74l1.34,3.83h5.25l-6.92-17.96h-5.87l-6.82,17.96ZM171.64,103.62h1.26c1.83,0,3.5.31,3.5,1.98,0,2.03-1.96,2.08-3.5,2.08h-1.26v-4.07h0ZM166.85,118.18h4.79v-7.1h1c1.78,0,2.39.77,3.37,3.86l1.03,3.24h4.99l-1.75-4.89c-.9-2.19-1-3.55-2.55-3.96v-.05c2.32-.54,3.45-2.14,3.45-4.53,0-3.09-2.6-4.53-5.79-4.53h-8.54v17.96ZM155.78,103.62h1.24c1.65,0,2.96.59,2.96,2.42s-1.31,2.47-2.96,2.47h-1.24v-4.89ZM150.99,118.18h4.79v-6.28h1.85c4.48,0,7.13-2.16,7.13-5.79,0-4.04-2.57-5.89-8.05-5.89h-5.71v17.96h0ZM136.27,103.77h1.85c3.5,0,5.58,1.85,5.58,5.43s-2.01,5.43-5.58,5.43h-1.85v-10.86ZM131.48,118.18h6.54c6.12,0,10.63-2.34,10.63-9.06s-4.38-8.9-10.63-8.9h-6.54v17.96ZM123.04,118.18h4.79v-17.96h-4.79v17.96ZM120,100.22h-13.77v3.55h8.31l-8.54,10.6v3.81h14.05v-3.55h-8.85l8.8-10.6v-3.81h0ZM98.54,118.18h4.79v-17.96h-4.79v17.96ZM95.14,100.22h-4.79v10.35c0,2.37-.64,4.37-3.09,4.37s-3.09-2.01-3.09-4.37v-10.35h-4.79v11.14c0,4.92,3.19,7.13,7.88,7.13s7.87-2.21,7.87-7.13v-11.14h0ZM63.82,117.72c1.6.51,3.68.77,5.35.77,3.99,0,7.9-1.26,7.9-5.92,0-6.49-8.49-4.53-8.49-7.44,0-1.57,2.01-1.67,3.22-1.67,1.36,0,2.75.26,3.99.82l.31-3.71c-1.21-.41-2.91-.67-4.63-.67-3.6,0-7.82,1.18-7.82,5.51,0,6.54,8.49,4.43,8.49,7.77,0,1.44-1.44,1.75-2.96,1.75-1.98,0-3.71-.51-4.94-1.18l-.41,3.96h0ZM44.16,103.77h1.85c3.5,0,5.58,1.85,5.58,5.43s-2.01,5.43-5.58,5.43h-1.85s0-10.86,0-10.86ZM39.37,118.18h6.54c6.12,0,10.63-2.34,10.63-9.06s-4.37-8.9-10.63-8.9h-6.54v17.96ZM19.17,118.18h4.4l-.15-12.27h.05l6.28,12.27h5.94v-17.96h-4.37l.08,12.2h-.05l-6.07-12.2h-6.1v17.96h-.01ZM16.01,100.22h-4.79v10.35c0,2.37-.64,4.37-3.09,4.37s-3.09-2.01-3.09-4.37v-10.35H.25v11.14c0,4.92,3.19,7.13,7.88,7.13s7.87-2.21,7.87-7.13v-11.14h.01Z"/>
    <path d="M233.26,91.46h12.94v-3.4h-8.16v-4.07h7.44v-3.4h-7.44v-3.71h7.87v-3.4h-12.66v17.98ZM218.95,91.46h4.79v-7.23h6.92v-3.4h-6.92v-3.94h7.23v-3.4h-12.02v17.96h0ZM204.77,91.46h12.2v-3.55h-7.41v-14.41h-4.79v17.96ZM196.41,91.46h4.79v-17.96h-4.79v17.96ZM177.6,91.46h4.79v-7.69h5.66v7.69h4.79v-17.96h-4.79v6.87h-5.66v-6.87h-4.79v17.96ZM161.52,91c1.6.51,3.68.77,5.35.77,3.99,0,7.9-1.26,7.9-5.92,0-6.49-8.49-4.53-8.49-7.44,0-1.57,2.01-1.67,3.22-1.67,1.36,0,2.75.26,3.99.82l.31-3.71c-1.21-.41-2.91-.67-4.63-.67-3.6,0-7.82,1.18-7.82,5.51,0,6.54,8.49,4.43,8.49,7.77,0,1.44-1.44,1.75-2.96,1.75-1.98,0-3.71-.51-4.94-1.18l-.41,3.96h0ZM141.94,91.46h4.4l-.15-12.27h.05l6.28,12.27h5.94v-17.96h-4.37l.08,12.2h-.05l-6.07-12.2h-6.1v17.96h0ZM126.37,82.48c0-3.11,1.16-5.74,4.07-5.74s4.07,2.62,4.07,5.74-1.16,5.74-4.07,5.74-4.07-2.78-4.07-5.74M121.43,82.48c0,5.71,3.14,9.29,9.01,9.29s9.01-3.58,9.01-9.29-3.09-9.29-9.01-9.29-9.01,3.53-9.01,9.29M113.99,91.46h4.79v-17.96h-4.79v17.96ZM97.93,91c1.6.51,3.68.77,5.35.77,3.99,0,7.9-1.26,7.9-5.92,0-6.49-8.49-4.53-8.49-7.44,0-1.57,2.01-1.67,3.22-1.67,1.36,0,2.75.26,3.99.82l.31-3.71c-1.21-.41-2.91-.67-4.63-.67-3.6,0-7.82,1.18-7.82,5.51,0,6.54,8.49,4.43,8.49,7.77,0,1.44-1.44,1.75-2.96,1.75-1.98,0-3.71-.51-4.94-1.18l-.41,3.96h0ZM83.24,91c1.6.51,3.68.77,5.35.77,3.99,0,7.9-1.26,7.9-5.92,0-6.49-8.49-4.53-8.49-7.44,0-1.57,2.01-1.67,3.22-1.67,1.36,0,2.75.26,3.99.82l.31-3.71c-1.21-.41-2.91-.67-4.63-.67-3.6,0-7.82,1.18-7.82,5.51,0,6.54,8.49,4.43,8.49,7.77,0,1.44-1.44,1.75-2.96,1.75-1.98,0-3.71-.51-4.94-1.18l-.41,3.96h0ZM68.01,91.46h12.94v-3.4h-8.16v-4.07h7.44v-3.4h-7.44v-3.71h7.88v-3.4h-12.66v17.98ZM55.63,76.9h1.26c1.83,0,3.5.31,3.5,1.98,0,2.03-1.96,2.09-3.5,2.09h-1.26v-4.07ZM50.84,91.46h4.79v-7.1h1c1.78,0,2.39.77,3.37,3.86l1.03,3.24h4.99l-1.75-4.89c-.9-2.19-1-3.55-2.55-3.96v-.05c2.32-.54,3.45-2.14,3.45-4.53,0-3.09-2.6-4.53-5.79-4.53h-8.54s0,17.96,0,17.96ZM40.29,76.9h1.24c1.65,0,2.96.59,2.96,2.42s-1.31,2.47-2.96,2.47h-1.24v-4.89ZM35.5,91.46h4.79v-6.28h1.85c4.48,0,7.13-2.16,7.13-5.79,0-4.04-2.57-5.89-8.05-5.89h-5.71v17.96h-.01ZM19.91,91.46h12.94v-3.4h-8.16v-4.07h7.44v-3.4h-7.44v-3.71h7.87v-3.4h-12.66v17.98ZM5.32,77.05h1.85c3.5,0,5.58,1.85,5.58,5.43s-2.01,5.43-5.58,5.43h-1.85v-10.86ZM.53,91.46h6.54c6.12,0,10.63-2.34,10.63-9.06s-4.38-8.9-10.63-8.9H.53v17.96Z"/>
    <path class="cls-3" d="M122.46,54.23h-7.44v3.4h2.8v3.55c-.44.21-1.06.31-1.7.31-3.5,0-6-2.14-6-5.66,0-4.19,3.19-5.82,7.08-5.82,1.13,0,2.88.28,4.38,1.16l.39-3.91c-1.75-.67-4.25-.8-5.43-.8-6.59,0-11.35,2.6-11.35,9.37s5.53,9.21,10.32,9.21c1.65,0,3.91-.05,6.95-.82v-9.99h0ZM86.43,64.73h4.4l-.15-12.28h.05l6.28,12.28h5.94v-17.96h-4.38l.08,12.2h-.05l-6.07-12.2h-6.1s0,17.96,0,17.96ZM83.26,46.77h-4.79v10.34c0,2.37-.64,4.38-3.09,4.38s-3.09-2.01-3.09-4.38v-10.34h-4.79v11.14c0,4.92,3.19,7.13,7.87,7.13s7.87-2.21,7.87-7.13v-11.14h.02ZM56.55,64.73h4.79v-14.41h4.43v-3.55h-13.64v3.55h4.43v14.41h-.01ZM39.03,64.73h4.79v-7.23h6.92v-3.4h-6.92v-3.94h7.23v-3.4h-12.02v17.96h0ZM30.02,64.73h4.79v-17.96h-4.79v17.96ZM18.83,64.73h4.79v-14.41h4.43v-3.55h-13.64v3.55h4.43v14.41h-.01ZM.17,64.27c1.59.52,3.68.77,5.35.77,3.99,0,7.9-1.26,7.9-5.92,0-6.48-8.49-4.53-8.49-7.44,0-1.57,2.01-1.67,3.22-1.67,1.36,0,2.75.26,3.99.82l.31-3.71c-1.21-.41-2.91-.67-4.63-.67-3.6,0-7.82,1.18-7.82,5.51,0,6.54,8.49,4.43,8.49,7.77,0,1.44-1.44,1.75-2.96,1.75-1.98,0-3.71-.51-4.94-1.18l-.41,3.96h0Z"/>
    <path d="M249.91,64.73h12.94v-3.4h-8.16v-4.07h7.44v-3.4h-7.44v-3.71h7.88v-3.4h-12.66v17.98ZM231.46,64.73h4.79v-7.69h5.66v7.69h4.79v-17.96h-4.79v6.87h-5.66v-6.87h-4.79s0,17.96,0,17.96ZM229.04,60.56c-1.31.51-2.91.93-4.48.93-3.5,0-5.99-2.14-5.99-5.66s2.21-5.81,5.61-5.81c1.65,0,3.14.41,4.68,1.26l.39-3.89c-1.72-.51-3.5-.93-5.33-.93-5.92,0-10.29,3.11-10.29,9.37,0,6.79,5.53,9.21,10.32,9.21,2.44,0,3.96-.39,5.33-.72l-.23-3.76h-.01ZM198.73,64.27c1.6.51,3.68.77,5.35.77,3.99,0,7.9-1.26,7.9-5.92,0-6.49-8.49-4.53-8.49-7.44,0-1.57,2.01-1.67,3.22-1.67,1.36,0,2.75.26,3.99.82l.31-3.7c-1.21-.41-2.91-.67-4.63-.67-3.6,0-7.82,1.18-7.82,5.51,0,6.54,8.49,4.43,8.49,7.77,0,1.44-1.44,1.75-2.96,1.75-1.98,0-3.71-.51-4.94-1.18l-.41,3.96h0ZM188.38,64.73h4.79v-14.41h4.43v-3.55h-13.64v3.55h4.43v14.41h0ZM182.2,46.77h-4.79v10.35c0,2.37-.64,4.38-3.09,4.38s-3.09-2.01-3.09-4.38v-10.35h-4.79v11.14c0,4.91,3.19,7.13,7.87,7.13s7.87-2.21,7.87-7.13v-11.14h.02ZM150.86,64.73h12.94v-3.4h-8.16v-4.07h7.44v-3.4h-7.44v-3.71h7.87v-3.4h-12.66v17.98ZM136.01,50.32h1.85c3.5,0,5.58,1.85,5.58,5.43s-2.01,5.43-5.58,5.43h-1.85v-10.86ZM131.22,64.73h6.54c6.12,0,10.63-2.34,10.63-9.06s-4.38-8.9-10.63-8.9h-6.54v17.96Z"/>
  </g>
</svg>